<svg id="visual" viewBox="0 0 900 600" width="900" height="600" xmlns="http://www.w3.org/2000/svg" xmlns:xlink="http://www.w3.org/1999/xlink" version="1.1"><path d="M0 37L90 37L90 37L180 37L180 49L270 49L270 19L360 19L360 37L450 37L450 37L540 37L540 19L630 19L630 49L720 49L720 61L810 61L810 55L900 55L900 25L900 0L900 0L810 0L810 0L720 0L720 0L630 0L630 0L540 0L540 0L450 0L450 0L360 0L360 0L270 0L270 0L180 0L180 0L90 0L90 0L0 0Z" fill="#9777b7"></path><path d="M0 103L90 103L90 91L180 91L180 121L270 121L270 169L360 169L360 145L450 145L450 127L540 127L540 97L630 97L630 163L720 163L720 127L810 127L810 217L900 217L900 145L900 23L900 53L810 53L810 59L720 59L720 47L630 47L630 17L540 17L540 35L450 35L450 35L360 35L360 17L270 17L270 47L180 47L180 35L90 35L90 35L0 35Z" fill="#886ba6"></path><path d="M0 145L90 145L90 139L180 139L180 175L270 175L270 217L360 217L360 175L450 175L450 151L540 151L540 139L630 139L630 181L720 181L720 151L810 151L810 253L900 253L900 181L900 143L900 215L810 215L810 125L720 125L720 161L630 161L630 95L540 95L540 125L450 125L450 143L360 143L360 167L270 167L270 119L180 119L180 89L90 89L90 101L0 101Z" fill="#7a5f95"></path><path d="M0 199L90 199L90 205L180 205L180 229L270 229L270 289L360 289L360 235L450 235L450 223L540 223L540 181L630 181L630 211L720 211L720 193L810 193L810 277L900 277L900 217L900 179L900 251L810 251L810 149L720 149L720 179L630 179L630 137L540 137L540 149L450 149L450 173L360 173L360 215L270 215L270 173L180 173L180 137L90 137L90 143L0 143Z" fill="#6c5384"></path><path d="M0 223L90 223L90 253L180 253L180 259L270 259L270 337L360 337L360 259L450 259L450 241L540 241L540 211L630 211L630 253L720 253L720 211L810 211L810 319L900 319L900 235L900 215L900 275L810 275L810 191L720 191L720 209L630 209L630 179L540 179L540 221L450 221L450 233L360 233L360 287L270 287L270 227L180 227L180 203L90 203L90 197L0 197Z" fill="#5e4874"></path><path d="M0 259L90 259L90 313L180 313L180 313L270 313L270 361L360 361L360 301L450 301L450 265L540 265L540 247L630 247L630 295L720 295L720 265L810 265L810 361L900 361L900 271L900 233L900 317L810 317L810 209L720 209L720 251L630 251L630 209L540 209L540 239L450 239L450 257L360 257L360 335L270 335L270 257L180 257L180 251L90 251L90 221L0 221Z" fill="#503d64"></path><path d="M0 445L90 445L90 457L180 457L180 469L270 469L270 481L360 481L360 433L450 433L450 403L540 403L540 457L630 457L630 481L720 481L720 445L810 445L810 487L900 487L900 475L900 269L900 359L810 359L810 263L720 263L720 293L630 293L630 245L540 245L540 263L450 263L450 299L360 299L360 359L270 359L270 311L180 311L180 311L90 311L90 257L0 257Z" fill="#433255"></path><path d="M0 517L90 517L90 517L180 517L180 523L270 523L270 523L360 523L360 481L450 481L450 493L540 493L540 541L630 541L630 559L720 559L720 511L810 511L810 517L900 517L900 541L900 473L900 485L810 485L810 443L720 443L720 479L630 479L630 455L540 455L540 401L450 401L450 431L360 431L360 479L270 479L270 467L180 467L180 455L90 455L90 443L0 443Z" fill="#362746"></path><path d="M0 601L90 601L90 601L180 601L180 601L270 601L270 601L360 601L360 601L450 601L450 601L540 601L540 601L630 601L630 601L720 601L720 601L810 601L810 601L900 601L900 601L900 539L900 515L810 515L810 509L720 509L720 557L630 557L630 539L540 539L540 491L450 491L450 479L360 479L360 521L270 521L270 521L180 521L180 515L90 515L90 515L0 515Z" fill="#2a1d37"></path></svg>